<svg width="76" height="28" viewBox="0 0 76 28" fill="none" xmlns="http://www.w3.org/2000/svg">
<g id="Group 52">
<path id="path746" d="M47.437 1.03536C47.437 1.03536 49.7415 2.6383 47.437 2.94399C47.437 2.94399 38.8345 3.95514 32.4228 9.94751C32.4228 9.94751 22.8091 18.358 19.2074 27.5758C19.2074 27.5758 18.0003 27.5758 18.4157 25.7769C18.8116 23.978 21.2258 16.0535 31.9407 6.34974C31.9172 6.34974 42.2363 -3.06798 47.437 1.03536ZM20.1088 2.24249C20.195 4.43721 22.1036 12.8673 22.1036 12.8673C22.8091 14.5799 23.4009 12.8673 23.4009 12.8673C25.7053 5.95391 20.9867 1.95636 20.9867 1.95636C19.7992 1.23524 20.1088 2.24249 20.1088 2.24249Z" fill="white"/>
<path id="path748" d="M2.52394 8.12506C3.33521 7.92911 4.56583 7.79584 5.77293 7.79584C7.04665 7.79584 8.36348 8.06235 9.24137 8.76388C10.033 9.35567 10.4916 10.2571 10.4916 11.4406C10.4916 13.0436 9.72339 14.3408 8.75928 15.109C7.68152 15.9634 6.12564 16.3827 4.52271 16.3827C4.03673 16.3827 3.6213 16.3161 3.24898 16.273L2.26139 21.3874H0L2.52394 8.12506ZM3.6213 14.3839C3.99362 14.4702 4.34636 14.4937 4.85193 14.4937C6.80366 14.4937 8.14401 13.2199 8.14401 11.617C8.14401 10.1669 7.11327 9.66528 5.79252 9.66528C5.20073 9.66528 4.76179 9.70838 4.49921 9.77501L3.6213 14.3839Z" fill="white"/>
<path id="path750" d="M15.7392 21.4071C15.7392 20.8153 15.8254 20.0471 15.8921 19.2124H15.849C14.8809 20.9916 13.5876 21.6266 12.3374 21.6266C10.6012 21.6266 9.43726 20.2666 9.43726 18.2914C9.43726 14.9522 11.7652 11.4211 16.3114 11.4211C17.3618 11.4211 18.5062 11.6171 19.2743 11.86L18.2396 16.951C17.9575 18.4011 17.8007 20.2431 17.8477 21.4071H15.7392ZM16.6838 13.3297C16.4408 13.2631 16.135 13.22 15.7157 13.22C13.5641 13.22 11.8749 15.6577 11.8749 17.872C11.8749 18.9067 12.2473 19.7414 13.2819 19.7414C14.3793 19.7414 15.7157 18.3776 16.1782 15.8968L16.6838 13.3297Z" fill="white"/>
<path id="path752" d="M39.7989 15.4578C39.7989 18.7969 37.4945 21.6266 34.1554 21.6266C31.6981 21.6266 30.1617 19.9139 30.1617 17.5898C30.1617 14.2742 32.4662 11.4211 35.8053 11.4211C38.439 11.4211 39.7989 13.3062 39.7989 15.4578ZM32.576 17.5428C32.576 18.8831 33.2775 19.8277 34.4885 19.8277C36.2208 19.8277 37.3848 17.4135 37.3848 15.4813C37.3848 14.4702 36.9223 13.2435 35.5193 13.2435C33.6733 13.22 32.576 15.7243 32.576 17.5428Z" fill="white"/>
<path id="path754" d="M40.2379 21.407L41.5116 14.67C41.7546 13.506 41.8839 12.4753 42.0171 11.6405H44.1022L43.8827 13.3728H43.9258C44.8272 12.0795 46.0774 11.3975 47.4373 11.3975C48.8443 11.3975 49.9182 12.2323 49.9182 14.0743C49.9182 14.5133 49.832 15.1952 49.7418 15.6773L48.668 21.3639H46.3204L47.3512 15.8536C47.4178 15.5048 47.4843 15.0619 47.4843 14.6896C47.4843 13.8784 47.1748 13.2866 46.2538 13.2866C45.1995 13.2866 43.8161 14.5603 43.4006 16.8647L42.5658 21.3874H40.2379V21.407Z" fill="white"/>
<path id="path756" d="M58.3483 20.8583C57.3842 21.3639 56.0869 21.65 54.9034 21.65C52.2031 21.65 50.8862 19.9805 50.8862 17.5898C50.8862 14.6465 53.0574 11.4406 56.4161 11.4406C58.3483 11.4406 59.5553 12.538 59.5553 14.184C59.5553 16.6884 56.9217 17.4996 53.1671 17.4134C53.124 17.7622 53.2103 18.4206 53.4337 18.7969C53.806 19.4553 54.5075 19.8041 55.4285 19.8041C56.5259 19.8041 57.4038 19.5219 58.1092 19.1692L58.3483 20.8583ZM56.1301 13.1768C54.6604 13.1768 53.6963 14.4702 53.4337 15.6577C55.8479 15.6772 57.3842 15.348 57.3842 14.1644C57.3607 13.5491 56.8786 13.1768 56.1301 13.1768Z" fill="white"/>
<path id="path758" d="M67.4367 20.8583C66.4726 21.3639 65.1753 21.65 63.9917 21.65C61.2914 21.65 59.9746 19.9805 59.9746 17.5898C59.9746 14.6465 62.1458 11.4406 65.5045 11.4406C67.4366 11.4406 68.6672 12.538 68.6672 14.184C68.6672 16.6884 66.0336 17.4996 62.279 17.4134C62.2359 17.7622 62.3222 18.4206 62.5416 18.7969C62.914 19.4553 63.6194 19.8041 64.5404 19.8041C65.6378 19.8041 66.5156 19.5219 67.2171 19.1692L67.4367 20.8583ZM65.2184 13.1768C63.7487 13.1768 62.7846 14.4702 62.5181 15.6577C64.9363 15.6772 66.4725 15.348 66.4725 14.1644C66.449 13.5491 65.9434 13.1768 65.2184 13.1768Z" fill="white"/>
<path id="path760" d="M68.7968 21.407L69.9411 15.3912C70.2037 14.0116 70.337 12.4949 70.4467 11.6405H72.4651C72.3984 12.299 72.3553 12.977 72.2456 13.6824H72.3122C72.9706 12.3852 74.0445 11.421 75.3613 11.421C75.5377 11.421 75.714 11.4406 75.8904 11.4406L75.4279 13.7255C75.3182 13.702 75.1418 13.702 74.989 13.702C73.3194 13.702 72.2691 15.3912 71.8733 17.4801L71.1247 21.407H68.7968Z" fill="white"/>
</g>
</svg>
