<svg width="77" height="24" viewBox="0 0 77 24" fill="none" xmlns="http://www.w3.org/2000/svg">
<path d="M36.82 5C36.9667 5 37.0933 5.05333 37.2 5.16C37.3067 5.26667 37.36 5.39333 37.36 5.54V13.54C37.36 14.3667 37.2533 15.1267 37.04 15.82C36.84 16.5 36.52 17.0933 36.08 17.6C35.6533 18.1067 35.1 18.5 34.42 18.78C33.74 19.06 32.9267 19.2 31.98 19.2C31.02 19.2 30.2 19.06 29.52 18.78C28.84 18.5 28.28 18.1067 27.84 17.6C27.4133 17.0933 27.1 16.5 26.9 15.82C26.7 15.1267 26.6 14.3667 26.6 13.54V5.54C26.6 5.39333 26.6533 5.26667 26.76 5.16C26.8667 5.05333 26.9933 5 27.14 5H27.96C28.1067 5 28.2333 5.05333 28.34 5.16C28.4467 5.26667 28.5 5.39333 28.5 5.54V13.64C28.5 14.9467 28.8067 15.92 29.42 16.56C30.0333 17.1867 30.8867 17.5 31.98 17.5C33.0733 17.5 33.9267 17.1867 34.54 16.56C35.1667 15.92 35.48 14.9467 35.48 13.64V5.54C35.48 5.39333 35.5333 5.26667 35.64 5.16C35.7467 5.05333 35.8733 5 36.02 5H36.82ZM44.9848 4.8C45.7982 4.8 46.5115 4.92667 47.1248 5.18C47.7515 5.43333 48.2782 5.74667 48.7048 6.12C49.1448 6.48 49.4782 6.87333 49.7048 7.3C49.9315 7.71333 50.0515 8.08667 50.0648 8.42C50.0782 8.54 50.0382 8.64667 49.9448 8.74C49.8515 8.82 49.7448 8.86 49.6248 8.86H48.8048C48.6582 8.86 48.5382 8.83333 48.4448 8.78C48.3648 8.72667 48.2782 8.60667 48.1848 8.42C48.1182 8.28667 48.0048 8.12 47.8448 7.92C47.6982 7.70667 47.4915 7.50667 47.2248 7.32C46.9715 7.12 46.6582 6.95333 46.2848 6.82C45.9115 6.67333 45.4782 6.6 44.9848 6.6C44.6115 6.6 44.2515 6.64667 43.9048 6.74C43.5715 6.82 43.2715 6.94667 43.0048 7.12C42.7382 7.29333 42.5248 7.51333 42.3648 7.78C42.2048 8.03333 42.1248 8.33333 42.1248 8.68C42.1248 9.02667 42.1982 9.32 42.3448 9.56C42.5048 9.8 42.7515 10.02 43.0848 10.22C43.4315 10.4067 43.8648 10.58 44.3848 10.74C44.9048 10.9 45.5382 11.08 46.2848 11.28C47.0448 11.48 47.6848 11.7 48.2048 11.94C48.7382 12.18 49.1715 12.4533 49.5048 12.76C49.8382 13.0533 50.0782 13.4 50.2248 13.8C50.3848 14.1867 50.4648 14.6267 50.4648 15.12C50.4648 15.72 50.3315 16.2733 50.0648 16.78C49.8115 17.2733 49.4515 17.7 48.9848 18.06C48.5182 18.42 47.9515 18.7 47.2848 18.9C46.6315 19.1 45.8982 19.2 45.0848 19.2C44.3115 19.2 43.5982 19.0867 42.9448 18.86C42.2915 18.6333 41.7315 18.34 41.2648 17.98C40.7982 17.62 40.4248 17.22 40.1448 16.78C39.8782 16.34 39.7382 15.9067 39.7248 15.48C39.7248 15.36 39.7648 15.26 39.8448 15.18C39.9382 15.0867 40.0448 15.04 40.1648 15.04H40.9848C41.1182 15.04 41.2315 15.0667 41.3248 15.12C41.4315 15.1733 41.5248 15.2933 41.6048 15.48C41.6848 15.6667 41.8048 15.8733 41.9648 16.1C42.1382 16.3133 42.3648 16.52 42.6448 16.72C42.9248 16.9067 43.2648 17.0667 43.6648 17.2C44.0648 17.3333 44.5382 17.4 45.0848 17.4C45.5515 17.4 45.9915 17.3467 46.4048 17.24C46.8315 17.1333 47.2048 16.98 47.5248 16.78C47.8448 16.58 48.0982 16.34 48.2848 16.06C48.4715 15.78 48.5648 15.4667 48.5648 15.12C48.5648 14.7733 48.4582 14.48 48.2448 14.24C48.0315 13.9867 47.7248 13.76 47.3248 13.56C46.9248 13.36 46.4315 13.18 45.8448 13.02C45.2715 12.8467 44.6182 12.6667 43.8848 12.48C43.2182 12.3067 42.6515 12.1 42.1848 11.86C41.7182 11.6067 41.3382 11.32 41.0448 11C40.7515 10.68 40.5382 10.3267 40.4048 9.94C40.2848 9.55333 40.2248 9.13333 40.2248 8.68C40.2248 8.18667 40.3248 7.70667 40.5248 7.24C40.7248 6.77333 41.0182 6.36 41.4048 6C41.8048 5.64 42.2982 5.35333 42.8848 5.14C43.4848 4.91333 44.1848 4.8 44.9848 4.8ZM63.9081 10.42C63.9215 11.02 63.9281 11.5467 63.9281 12C63.9281 12.4533 63.9215 12.98 63.9081 13.58C63.8948 14.42 63.7481 15.18 63.4681 15.86C63.1881 16.5267 62.8015 17.0933 62.3081 17.56C61.8148 18.0267 61.2281 18.3867 60.5481 18.64C59.8681 18.88 59.1148 19 58.2881 19H53.5881C53.4415 19 53.3148 18.9467 53.2081 18.84C53.1015 18.7333 53.0481 18.6067 53.0481 18.46V5.54C53.0481 5.39333 53.1015 5.26667 53.2081 5.16C53.3148 5.05333 53.4415 5 53.5881 5H58.1681C58.9948 5 59.7548 5.12667 60.4481 5.38C61.1548 5.62 61.7615 5.97333 62.2681 6.44C62.7748 6.90667 63.1681 7.48 63.4481 8.16C63.7415 8.82667 63.8948 9.58 63.9081 10.42ZM62.0081 10.52C61.9948 10.04 61.9148 9.58 61.7681 9.14C61.6348 8.68667 61.4148 8.28667 61.1081 7.94C60.8015 7.59333 60.4015 7.32 59.9081 7.12C59.4148 6.90667 58.8081 6.8 58.0881 6.8H54.9481V17.2H58.1881C58.9081 17.2 59.5081 17.1 59.9881 16.9C60.4815 16.6867 60.8748 16.4067 61.1681 16.06C61.4615 15.7133 61.6681 15.32 61.7881 14.88C61.9215 14.4267 61.9948 13.96 62.0081 13.48C62.0081 13.1867 62.0081 12.9267 62.0081 12.7C62.0215 12.46 62.0281 12.2333 62.0281 12.02C62.0281 11.7933 62.0215 11.5667 62.0081 11.34C62.0081 11.1 62.0081 10.8267 62.0081 10.52ZM75.048 5C75.1946 5 75.3213 5.05333 75.428 5.16C75.5346 5.26667 75.588 5.39333 75.588 5.54V6.26C75.588 6.40667 75.5346 6.53333 75.428 6.64C75.3213 6.74667 75.1946 6.8 75.048 6.8H71.308V18.46C71.308 18.6067 71.2546 18.7333 71.148 18.84C71.0413 18.9467 70.9146 19 70.768 19H69.948C69.8013 19 69.6746 18.9467 69.568 18.84C69.4613 18.7333 69.408 18.6067 69.408 18.46V6.8H65.668C65.5213 6.8 65.3946 6.74667 65.288 6.64C65.1813 6.53333 65.128 6.40667 65.128 6.26V5.54C65.128 5.39333 65.1813 5.26667 65.288 5.16C65.3946 5.05333 65.5213 5 65.668 5H75.048Z" fill="white"/>
<path d="M13.8377 7.05172V4.25748H20.2833V0H2.73185V4.25748H9.17817V7.04946C3.93919 7.28801 0 8.3166 0 9.5488C0 10.781 3.94108 11.8096 9.17817 12.0496V21H13.8393V12.0489C19.0688 11.8096 23 10.7818 23 9.55068C23 8.31961 19.0688 7.29177 13.8393 7.05247M13.8393 11.2908V11.2885C13.7078 11.2968 13.0321 11.337 11.5277 11.337C10.3249 11.337 9.47868 11.3032 9.18045 11.2878V11.2915C4.55195 11.0883 1.09706 10.2892 1.09706 9.33317C1.09706 8.37708 4.55233 7.57916 9.18045 7.37555V10.4955C9.48361 10.5162 10.3506 10.5669 11.5474 10.5669C12.9847 10.5669 13.7074 10.5075 13.84 10.4955V7.37555C18.4594 7.57953 21.9063 8.37934 21.9063 9.33204C21.9063 10.2847 18.4579 11.0849 13.84 11.2889" fill="white"/>
</svg>
