<svg width="76" height="27" viewBox="0 0 76 27" fill="none" xmlns="http://www.w3.org/2000/svg">
<path d="M0 17.8679L4.51324 13.0754L2.13166 8.40043H5.42471L6.6302 10.8849L8.90887 8.40043H12.2019L7.85039 13.0754L10.3349 17.8679H6.99773L5.70403 15.2953L3.33715 17.8679H0Z" fill="white"/>
<path d="M16.3697 17.994C15.202 17.994 14.2821 17.7251 13.6101 17.1875C12.9464 16.6499 12.6146 15.8854 12.6146 14.8941C12.6146 14.5749 12.6524 14.2263 12.728 13.8482C13.022 12.4873 13.5933 11.4457 14.4418 10.7232C15.2902 9.99235 16.5251 9.62692 18.1464 9.62692C18.6505 9.62692 19.0873 9.66473 19.4569 9.74033C19.835 9.81594 20.192 9.92095 20.528 10.0554L20.087 12.1219C19.4401 11.8027 18.7051 11.6431 17.8818 11.6431C17.1174 11.6431 16.5125 11.8195 16.0673 12.1723C15.622 12.5167 15.3154 13.0754 15.1474 13.8482C15.1138 13.9995 15.0886 14.1423 15.0718 14.2767C15.055 14.4027 15.0466 14.5245 15.0466 14.6421C15.0466 15.1041 15.1936 15.4444 15.4876 15.6628C15.7901 15.8728 16.2857 15.9778 16.9745 15.9778C17.3778 15.9778 17.7768 15.94 18.1716 15.8644C18.5749 15.7888 18.9823 15.6712 19.3939 15.5116L18.9529 17.5907C18.5665 17.7167 18.1632 17.8133 17.7432 17.8805C17.3316 17.9562 16.8737 17.994 16.3697 17.994Z" fill="white"/>
<path d="M20.4199 17.8679L22.1336 9.75293H24.5026L23.86 12.7772H26.6574L27.3 9.75293H29.669L27.9553 17.8679H25.5863L26.229 14.8437H23.4315L22.7889 17.8679H20.4199Z" fill="white"/>
<path d="M29.4731 17.8679L34.2993 9.75293H36.8069L38.2056 17.8679H35.7358L35.446 16.1416H32.9762L31.9429 17.8679H29.4731ZM33.644 14.4405H35.4586L35.0553 12.0589L33.644 14.4405Z" fill="white"/>
<path d="M39.7323 17.8679L41.4461 9.75293H43.4622L45.617 14.0499L46.5243 9.75293H48.8932L47.1795 17.8679H45.1508L43.0086 13.5836L42.1013 17.8679H39.7323Z" fill="white"/>
<path d="M53.0848 17.994C52.3456 17.994 51.6987 17.8763 51.1443 17.6411C50.5982 17.4059 50.174 17.0615 49.8716 16.6079C49.5692 16.1458 49.4179 15.583 49.4179 14.9193C49.4179 14.5917 49.4557 14.2473 49.5313 13.886C49.8254 12.5251 50.4176 11.4751 51.3081 10.7358C52.1986 9.99655 53.4418 9.62692 55.038 9.62692C55.542 9.62692 55.9914 9.65633 56.3863 9.71513C56.7811 9.77394 57.1465 9.86214 57.4825 9.97975L57.0415 12.0085C56.7055 11.8657 56.3443 11.7691 55.9578 11.7187C55.5798 11.6683 55.185 11.6431 54.7733 11.6431C54.0509 11.6431 53.4418 11.8195 52.9462 12.1723C52.4506 12.5251 52.1187 13.0964 51.9507 13.886C51.8751 14.2137 51.8373 14.4993 51.8373 14.7429C51.8373 15.1713 51.9633 15.4864 52.2154 15.688C52.4758 15.8812 52.9084 15.9778 53.5132 15.9778C53.7317 15.9778 53.9375 15.9652 54.1307 15.94C54.3323 15.9064 54.5255 15.8644 54.7103 15.814L54.9624 14.6295H53.3494L53.6645 13.1678H57.2557L56.3863 17.2505C56.0334 17.4437 55.5798 17.6159 55.0254 17.7671C54.4793 17.9183 53.8325 17.994 53.0848 17.994Z" fill="white"/>
<path d="M65.3123 17.8679L67.3116 8.40043H69.6638L72.1777 13.4135L73.2362 8.40043H76L74.0006 17.8679H71.6338L69.1346 12.8696L68.0761 17.8679H65.3123Z" fill="white"/>
<path fill-rule="evenodd" clip-rule="evenodd" d="M58.1728 16.0534L57.7896 17.8679H63.9389L64.3169 16.0534H60.5366H58.1728ZM61.4943 11.5675L61.4904 11.585L59.1201 11.5675L59.5033 9.75293H65.6526L65.2746 11.5675H61.4943Z" fill="white"/>
<path d="M64.5185 12.8906H61.2045H58.8407L58.4522 14.7303H60.8138H64.1279L64.5185 12.8906Z" fill="white"/>
<path d="M30.7672 2.75702C30.7672 2.75702 32.1514 0.239143 36.0438 0.0111215C39.8592 -0.210477 43.8191 2.95292 43.8191 2.95292L45.1197 1.7807L47.0467 7.02842L40.8548 6.66551L42.0431 5.2492C42.0431 5.2492 36.8082 -0.689002 30.7704 2.75702H30.7672Z" fill="white"/>
<path d="M45.6817 23.382C45.6817 23.382 44.2975 25.8999 40.4051 26.1279C36.5897 26.3495 32.6299 23.1861 32.6299 23.1861L31.3292 24.3583L29.4022 19.1106L35.5941 19.4735L34.4059 20.8898C34.4059 20.8898 39.6407 26.828 45.6785 23.382H45.6817Z" fill="white"/>
</svg>
