<svg width="180" height="43" viewBox="0 0 119 30" fill="none" xmlns="http://www.w3.org/2000/svg">
<g id="Group 51">
<path id="Vector" d="M16.2118 4.78724L0 3.88554L10.5655 15.2158L16.2118 4.78724ZM8.10117 3.57868L15.5792 4.11215L6.31192 0.48645L8.10117 3.57868ZM17.4628 4.11215L21.4473 0.48645L24.1335 4.33875L17.4628 4.11215ZM17.0143 4.82973L11.1462 15.6643L16.4761 21.5278L22.4718 15.9334L24.1288 5.18853L17.0143 4.82973ZM11.4625 17.3639L8.63935 29.1427L15.9804 22.1557L11.4625 17.3639ZM22.2971 0.665847L25.1627 4.33875L38.4617 0.665847H22.2971Z" fill="#29B2FE"/>
<path id="Vector_2" d="M34.7557 7.33655C34.7604 8.24769 34.7038 9.15412 34.5857 10.0558C33.6463 10.0889 32.4707 9.74896 32.5038 11.3635C33.9484 11.3305 34.3355 11.3635 34.3355 11.3635C34.3355 11.3635 34.2694 14.2197 32.1167 14.1111C31.3424 18.478 30.606 22.3067 30.606 22.3067H27.1597L29.0386 10.0936C29.0386 10.0936 29.4729 7.61036 31.7248 7.34599L34.7557 7.33655ZM33.245 22.3161L35.0578 11.17H38.2162L38.4616 12.0103C38.4616 12.0103 39.2548 10.9009 41.6388 11.17C41.0676 13.8892 40.9685 14.2952 40.9685 14.2952C40.9685 14.2952 38.3483 14.0261 38.1453 14.8665C37.9423 15.7068 36.9037 22.3209 36.9037 22.3209L33.245 22.3161ZM61.2167 13.1811C60.5132 11.9064 59.2339 10.7404 56.2124 11.1228C53.191 11.5052 51.0241 14.4794 51.1752 18.5158C51.482 21.8724 53.8661 22.4672 54.7017 22.5805C60.3763 23.2509 60.4471 20.2956 60.4802 19.1862C59.3047 19.1862 58.7523 19.2098 58.2613 19.2192C58.1197 19.6819 55.8206 19.4552 55.8206 19.4552C55.8206 19.4552 54.9472 19.3892 54.8811 17.8454H61.2308C61.2261 17.8454 61.9248 14.4605 61.2167 13.1811ZM57.9592 15.9004C57.3219 15.9665 55.1738 15.9004 55.1738 15.9004C56.0142 12.5768 58.3274 14.0214 57.9592 15.9004ZM105.811 13.1811C105.107 11.9064 103.828 10.7404 100.807 11.1228C97.7852 11.5052 95.6183 14.4794 95.7694 18.5158C96.0762 21.8724 98.4603 22.4672 99.2959 22.5805C104.971 23.2509 105.041 20.2956 105.074 19.1862C103.899 19.1862 103.346 19.2098 102.856 19.2192C102.714 19.6819 100.415 19.4552 100.415 19.4552C100.415 19.4552 99.5414 19.3892 99.4753 17.8454H105.816C105.811 17.8454 106.5 14.4605 105.811 13.1811ZM102.553 15.9004C101.916 15.9665 99.768 15.9004 99.768 15.9004C100.594 12.5768 102.912 14.0214 102.539 15.9004H102.553Z" fill="white"/>
<path id="Vector_3" d="M50.8541 13.181C50.1507 11.9064 48.8713 10.7403 45.8499 11.1227C42.8285 11.5051 40.6615 14.4793 40.8126 18.5157C41.1195 21.8723 43.5036 22.4672 44.3392 22.5805C50.0138 23.2508 50.0846 20.2955 50.1176 19.1861C48.9421 19.1861 48.3897 19.2097 47.8988 19.2191C47.7571 19.6818 45.458 19.4552 45.458 19.4552C45.458 19.4552 44.5847 19.3891 44.5186 17.8454H50.8588C50.8541 17.8454 51.5622 14.4604 50.8541 13.181ZM47.5919 15.9003C46.9546 15.9664 44.8065 15.9003 44.8065 15.9003C45.661 12.5768 47.9649 14.0214 47.5919 15.9003ZM63.6007 7.60559L61.2827 22.3114H64.9792L67.4624 7.60559H63.6007ZM75.9932 22.3161L77.8721 11.1274H81.1626V11.9819C81.1626 11.9819 82.3051 10.7403 85.3265 11.1274C88.3479 11.5098 86.8372 16.8776 86.8372 16.8776L86.0299 22.3255H82.4043C82.4043 22.3255 83.2446 16.8303 83.4098 15.3716C83.2399 13.724 81.2948 13.7948 80.8227 14.9703C80.5867 16.4149 79.515 22.3255 79.515 22.3255L75.9932 22.3161ZM92.3466 14.3235H95.6701L95.977 12.1424C95.977 12.1424 96.3783 11.1369 94.9714 11.118C93.5646 11.0991 91.4449 11.118 91.4449 11.118C91.4449 11.118 87.314 11.7034 87.5501 19.7998C87.7673 21.2444 88.8672 22.4011 90.2977 22.6843C90.6045 22.7504 92.7384 22.6843 92.7384 22.6843C92.7384 22.6843 95.1225 22.3775 94.7873 19.3938C92.3041 19.4599 91.2608 19.5638 91.1239 18.8556C90.9822 18.1522 91.4071 14.5926 92.3466 14.3235ZM106.651 14.857L110.994 11.1133L109.337 22.3161H105.669L106.651 14.857Z" fill="white"/>
<path id="Vector_4" d="M111.891 11.1133L111.263 15.1261L118.024 11.0519L111.891 11.1133Z" fill="#29B2FE"/>
<path id="Vector_5" d="M73.8451 11.1227C71.0598 11.0991 70.4177 11.1463 69.3791 11.1227C68.3358 11.0991 67.6324 12.6475 67.6984 14.2904H71.9709C71.9709 14.2904 72.4052 14.2243 72.443 14.5973C72.4619 14.9561 72.4619 15.3149 72.443 15.6737H69.3461C69.3461 15.6737 64.9792 16.0749 66.3577 21.3483C66.6268 22.1555 67.9675 22.7173 68.7087 22.689C69.4499 22.6607 71.2958 21.9856 71.598 21.7165L71.631 22.3538L74.9215 22.3208C74.9215 22.3208 76.0309 15.4376 76.1631 14.8664C76.2953 14.2951 76.5314 12.0905 73.8451 11.1227ZM70.9654 19.8753C69.6671 19.8753 69.4877 18.6195 70.5216 17.9492C71.5508 17.5007 72.1786 17.7698 72.1786 17.7698C72.1786 17.7698 72.2258 19.9225 70.9654 19.8753Z" fill="white"/>
</g>
</svg>
