<svg width="147" height="70" viewBox="0 0 147 70" fill="none" xmlns="http://www.w3.org/2000/svg">
<path id="Vector" d="M15.7518 25.1777V5.47302C15.7518 4.74288 15.8246 4.30497 17.0649 4.30497H33.7633C36.6806 4.30497 38.2848 6.78675 39.4519 11.4572L40.3997 15.1799H43.2434C43.7533 4.59806 44.1904 0 44.1904 0C44.1904 0 37.0445 0.802546 32.815 0.802546H11.4504L0 0.437477V3.50285L3.86561 4.23256C6.56369 4.74374 7.21871 5.3269 7.43922 7.80912C7.43922 7.80912 7.65843 15.107 7.65843 27.1496C7.65843 39.1904 7.43922 46.4164 7.43922 46.4164C7.43922 48.6055 6.56369 49.408 3.86561 49.9205L0 50.6506V53.7143L11.4504 53.3501H30.5557C34.858 53.3501 44.848 53.7143 44.848 53.7143C45.0659 51.0864 46.5254 39.1904 46.7442 37.8784H44.0461L41.2021 44.3738C38.9411 49.4813 35.6603 49.8468 32.0135 49.8468H21.1475C17.5011 49.8468 15.7509 48.387 15.7509 45.2492V28.609C15.7509 28.609 23.6992 28.609 26.4696 28.8284C28.5118 28.9749 29.7508 29.5585 30.408 32.4045L31.2835 36.1996H34.4174L34.1995 26.638L34.6366 17.0052H31.5019L30.4817 21.2378C29.8245 24.0109 29.3878 24.523 26.5433 24.8139C23.3353 25.1799 15.7505 25.1066 15.7505 25.1066V25.179H15.7518V25.1777ZM58.9939 7.51689C57.9728 12.0417 56.9517 15.5445 53.3785 17.8802C51.1912 19.3392 49.003 19.8495 48.1292 19.9228V22.6959H54.6188V45.1009C54.6188 51.3782 58.776 54.444 64.3173 54.444C68.62 54.444 73.0674 52.6195 74.5993 48.8236L73.0674 46.853C72.3379 48.0943 70.0059 49.9183 67.0886 49.9183C63.8806 49.9183 62.1304 47.7284 62.1304 42.1829V22.4054L72.9236 23.2088L73.5063 18.2448L62.1308 18.6832V7.58929L58.9939 7.51689ZM82.0376 41.9791L79.2668 42.052C79.4123 43.6571 79.486 45.7014 79.486 47.5987C79.486 49.5693 79.4132 51.3938 79.2668 52.2692C79.2668 52.2692 84.8089 54.3109 90.4239 54.3109C98.0078 54.3109 104.061 50.6619 104.061 43.5097C104.061 31.2503 85.6845 33.0753 85.6845 24.8269C85.6845 21.3974 88.7469 20.0832 92.1013 20.0832C94.7266 20.0832 96.9139 21.0318 97.3515 22.4197L99.1749 27.8932L101.873 27.7475C102.093 24.8278 102.238 21.4706 102.676 18.7708C100.342 17.7488 95.4553 17.1639 92.395 17.1639C85.2469 17.1639 79.4873 20.3026 79.4873 27.3091C79.4873 39.4965 97.4251 37.0151 97.4251 45.9932C97.4251 49.2029 95.4552 51.4658 91.0083 51.4658C86.9256 51.4658 84.883 49.3499 84.0824 47.2323L82.0376 41.9791ZM125.989 50.4104C121.767 62.2128 116.599 65.2703 111.941 65.2703C109.975 65.2703 109.03 64.3954 108.737 63.0136L107.646 57.3299L104.588 57.4755C104.006 60.8271 103.423 64.5437 102.624 67.6026C104.444 68.9848 107.499 69.7149 109.902 69.7149C114.926 69.7149 122.568 69.0581 129.554 52.4495L141.274 24.768C142.221 22.509 142.584 22.2905 145.35 21.197L146.879 20.6156V18.0658L139.963 18.43L132.539 18.0658V20.6156L134.431 21.197C136.322 21.7811 137.198 22.509 137.198 23.8206C137.198 24.4757 136.978 25.1317 136.614 26.1506C135.522 28.9207 128.752 45.3836 126.935 48.8812L128.752 48.2244C125.549 40.2843 120.674 27.0247 119.946 24.7684C119.8 24.3309 119.727 23.9667 119.727 23.6008C119.727 22.4358 120.528 21.4884 122.275 21.1246L124.677 20.616V18.0662L114.704 18.4304L106.77 18.0662V20.616L108.081 21.0527C109.9 21.6354 110.338 22.1457 111.429 24.6951C117.469 38.537 120.309 46.112 124.165 56.0205L125.989 50.4104Z" fill="#F27224"/>
</svg>
