<svg width="181" height="54" viewBox="0 0 181 54" fill="none" xmlns="http://www.w3.org/2000/svg">
<g id="Group 47">
<path id="Vector" d="M165.742 26.137H159.345C155.227 26.137 153.021 29.2208 153.021 34.3599V52.9374H140.889V26.1351H135.74C131.622 26.1351 129.418 29.219 129.418 34.358V52.9355H117.284V16.2241H129.418V21.8048C131.404 17.4725 134.125 16.2241 138.17 16.2241H153.023V21.8048C155.009 17.4725 157.729 16.2241 161.775 16.2241H165.744L165.742 26.137ZM114.636 37.4437H89.3413C90.0028 41.5561 92.5761 43.9058 96.9139 43.9058C100.149 43.9058 102.429 42.5828 103.165 40.235L113.9 43.2443C111.254 49.6318 104.708 53.5243 96.9139 53.5243C83.7513 53.5243 77.7216 43.317 77.7216 34.5816C77.7216 25.9917 83.0153 15.7116 96.1779 15.7116C110.149 15.7116 114.781 26.137 114.781 33.8475C114.791 35.0479 114.742 36.248 114.636 37.4437ZM102.871 30.3221C102.577 27.1637 100.296 24.229 96.1798 24.229C92.3544 24.229 90.0774 25.9153 89.3413 30.3221H102.871ZM56.5466 52.9355H67.2068L80.5166 16.2278H68.3117L61.8404 37.5909L55.2218 16.2259H43.0878L56.5466 52.9355ZM6.83844 52.9355H18.8979V26.137H30.3724V52.9374H42.3573V16.2259H18.8979V13.9508C18.8979 11.4539 20.6625 9.91294 23.4575 9.91294H30.3705V0H21.4731C12.721 0 6.83844 5.36082 6.83844 13.2148V16.2259H0V26.1389H6.83844V52.9355Z" fill="white"/>
<path id="Vector_2" d="M173.244 53.5251C177.386 53.5251 180.744 50.1711 180.744 46.0345C180.744 41.8979 177.386 38.5458 173.244 38.5458C169.101 38.5458 165.742 41.8998 165.742 46.0364C165.742 50.173 169.101 53.5251 173.244 53.5251Z" fill="#1DBF73"/>
</g>
</svg>
