<svg width="181" height="54" viewBox="0 0 181 54" fill="none" xmlns="http://www.w3.org/2000/svg">
<g id="Group 49">
<path id="Vector" d="M38.4607 12.9759V30.4589C38.4607 30.7423 38.3481 31.0141 38.1477 31.2145C37.9473 31.4149 37.6755 31.5274 37.3921 31.5274H31.8732C31.5899 31.5273 31.3181 31.4147 31.1178 31.2143C30.9174 31.014 30.8048 30.7423 30.8047 30.4589V2.02186C30.8047 1.73846 30.9172 1.46667 31.1176 1.26628C31.318 1.06589 31.5898 0.953312 31.8732 0.953312H36.9804C37.2638 0.953312 37.5355 1.06589 37.7359 1.26628C37.9363 1.46667 38.0489 1.73846 38.0489 2.02186V6.02654C38.0489 6.02654 39.8746 0.313975 45.2927 0.313975C45.2927 0.313975 50.6519 -0.333841 52.8309 5.6143C52.8309 5.6143 54.6566 0.313975 60.1925 0.313975C60.1925 0.313975 68.4252 -0.175539 68.4252 8.34314L68.4878 13.0347V30.5178C68.4878 30.8012 68.3752 31.073 68.1749 31.2734C67.9745 31.4738 67.7027 31.5863 67.4193 31.5863H61.8999C61.6165 31.5862 61.3448 31.4736 61.1444 31.2732C60.9441 31.0729 60.8315 30.8012 60.8313 30.5178L60.7809 11.4446C60.9378 7.12571 57.4438 7.43996 57.4438 7.43996C53.0467 7.51864 53.4698 13.0347 53.4698 13.0347V30.5178C53.4698 30.8012 53.3572 31.073 53.1568 31.2734C52.9564 31.4738 52.6846 31.5863 52.4012 31.5863H46.8823C46.5989 31.5862 46.3272 31.4736 46.1269 31.2732C45.9265 31.0729 45.8139 30.8012 45.8138 30.5178V11.8762C45.8138 11.8762 46.1365 7.40039 42.21 7.40039C42.2105 7.40039 38.3236 6.89014 38.4607 12.9759ZM180.724 12.9236V30.4061C180.724 30.6895 180.611 30.9612 180.411 31.1616C180.21 31.3619 179.938 31.4746 179.655 31.4747L173.915 31.5859C173.632 31.5857 173.36 31.4731 173.16 31.2728C172.959 31.0724 172.847 30.8007 172.847 30.5173V11.8762C172.847 11.8762 173.169 7.40039 169.243 7.40039C169.243 7.40039 165.494 7.2157 165.494 14.2333V30.4584C165.493 30.7418 165.381 31.0135 165.18 31.2139C164.98 31.4142 164.708 31.5268 164.425 31.527H158.906C158.622 31.5268 158.351 31.4142 158.15 31.2139C157.95 31.0135 157.837 30.7418 157.837 30.4584V2.02186C157.837 1.7385 157.95 1.46678 158.15 1.26642C158.351 1.06606 158.622 0.953437 158.906 0.953312H164.013C164.296 0.953312 164.568 1.06589 164.768 1.26628C164.969 1.46667 165.081 1.73846 165.081 2.02186V6.02654C165.081 6.02654 166.907 0.313975 172.325 0.313975C172.325 0.313975 178.129 -0.566584 180.084 5.50358C180.084 5.50311 180.724 6.7554 180.724 12.9236ZM140.875 0.196191C133.817 0.196191 128.095 6.14433 128.095 16.156C128.095 24.9706 132.512 32.1159 140.875 32.1159C148.766 32.1159 153.654 24.9706 153.654 16.156C153.654 6.321 147.933 0.196191 140.875 0.196191ZM145.329 16.5094C145.329 20.2785 144.858 22.2809 144.858 22.2809C144.188 26.2653 141.295 26.2709 140.869 26.2497C140.409 26.2681 137.492 26.2267 136.888 22.2809C136.888 22.2809 136.417 20.2785 136.417 16.5094V15.8814C136.417 12.1123 136.888 10.1099 136.888 10.1099C137.492 6.16411 140.409 6.12266 140.869 6.14056C141.295 6.11936 144.188 6.12454 144.858 10.1099C144.858 10.1099 145.329 12.1123 145.329 15.8814V16.5094ZM124.892 5.98697V1.9069C124.892 1.62354 124.779 1.35182 124.579 1.15146C124.378 0.951097 124.107 0.838479 123.823 0.838354H105.581C105.297 0.838354 105.025 0.950932 104.825 1.15132C104.625 1.35171 104.512 1.6235 104.512 1.9069V5.9554C104.512 6.23876 104.625 6.51047 104.825 6.71084C105.026 6.9112 105.297 7.02382 105.581 7.02395H115.096L103.833 23.3631C103.833 23.3631 103.389 24.0255 103.404 24.7572V29.7272C103.404 29.7272 103.33 31.4313 105.263 30.4424C105.263 30.4424 108.696 28.3685 114.452 28.3685C114.452 28.3685 120.136 28.2978 123.926 30.621C123.926 30.621 125.499 31.3362 125.499 29.7635V25.4375C125.499 25.4375 125.642 24.2926 124.14 23.5779C124.14 23.5779 119.778 21.1826 114.058 21.5756L124.892 5.98697ZM26.5451 26.442L24.8174 23.8121C24.2676 22.8302 24.3072 21.7306 24.3072 21.7306V9.59919C24.5428 -0.883662 12.9212 0.0195132 12.9212 0.0195132C2.59001 0.0195132 1.06399 8.05951 1.06399 8.05951C0.633364 9.67599 1.88565 9.71509 1.88565 9.71509L6.93391 10.2272C6.93391 10.2272 7.79468 10.4242 8.10799 9.39943C8.10799 9.39943 8.77277 5.8918 12.4905 5.8918C16.5357 5.8918 16.4938 9.36362 16.4938 9.36362V12.2701C8.41847 12.54 4.67621 14.7817 4.67621 14.7817C-0.309857 17.6086 0.00392143 23.2231 0.00392143 23.2231C0.00392143 32.3708 8.72 31.9779 8.72 31.9779C14.295 31.9779 17.593 27.895 17.593 27.895C18.5744 29.6231 20.3807 31.2711 20.3807 31.2711C21.2844 32.2511 22.2262 31.4285 22.2262 31.4285L26.3095 27.9345C27.2122 27.2665 26.5451 26.442 26.5451 26.442ZM11.4408 26.3289C8.81847 26.3289 7.84368 23.723 8.27902 21.1619C8.71482 18.6008 10.9782 16.5881 16.4943 16.647V18.2041C16.6898 25.0064 13.6236 26.3289 11.4408 26.3289ZM99.8855 26.442L98.1583 23.8121C97.6085 22.8302 97.6476 21.7306 97.6476 21.7306V9.59919C97.8832 -0.883662 86.2616 0.0195132 86.2616 0.0195132C75.9304 0.0195132 74.4044 8.05951 74.4044 8.05951C73.9738 9.67599 75.2261 9.71509 75.2261 9.71509L80.2743 10.2272C80.2743 10.2272 81.1351 10.4242 81.4484 9.39943C81.4484 9.39943 82.1132 5.8918 85.8309 5.8918C89.8761 5.8918 89.8342 9.36362 89.8342 9.36362V12.2701C81.7593 12.54 78.0166 14.7817 78.0166 14.7817C73.0305 17.6086 73.3443 23.2231 73.3443 23.2231C73.3443 32.3708 82.0604 31.9779 82.0604 31.9779C87.6354 31.9779 90.9334 27.895 90.9334 27.895C91.9152 29.6231 93.7206 31.2711 93.7206 31.2711C94.6243 32.2511 95.5666 31.4285 95.5666 31.4285L99.6495 27.9345C100.553 27.2665 99.8855 26.442 99.8855 26.442ZM84.7812 26.3289C82.1589 26.3289 81.1841 23.723 81.6194 21.1619C82.0552 18.6008 84.3186 16.5881 89.8342 16.647V18.2041C90.0302 25.0064 86.9645 26.3289 84.7812 26.3289Z" fill="white"/>
<g id="Group">
<path id="Vector_2" d="M113.782 48.6567C113.782 48.6567 113.32 49.46 113.888 49.6395C113.888 49.6395 114.528 49.8897 115.327 49.1481C115.327 49.1481 121.155 44.0574 121.295 34.7892C121.295 34.7892 121.338 33.6316 120.874 33.315C120.874 33.315 119.048 31.6999 112.483 32.1913C112.483 32.1913 106.761 32.5776 103.637 35.3512C103.637 35.3512 103.356 35.5967 103.356 35.9124C103.356 35.9124 103.288 36.5941 105.006 36.2987C105.006 36.2987 110.728 35.4907 114.133 35.9124C114.133 35.9124 115.889 36.123 116.38 36.7204C116.38 36.7204 117.188 37.3875 116.766 39.5986C116.766 39.5995 115.607 45.2164 113.782 48.6567Z" fill="#F3971B"/>
<path id="Vector_3" d="M112.628 39.7649C112.628 39.7649 113.483 40.8721 112.104 41.8271C112.104 41.8271 97.3729 53.6103 72.6381 53.6103C72.6381 53.6103 47.1768 54.8664 25.9166 35.5496C25.9166 35.5496 25.1713 34.8952 25.6339 34.287C25.6339 34.287 26.0476 33.7273 27.1185 34.336C27.1185 34.336 47.1179 46.7981 73.3839 46.7981C73.3839 46.7981 91.6406 47.5048 110.368 39.4954C110.368 39.4954 111.86 38.7223 112.628 39.7649Z" fill="#F3971B"/>
</g>
</g>
</svg>
