<svg width="176" height="59" viewBox="0 0 176 59" fill="none" xmlns="http://www.w3.org/2000/svg">
<path id="Vector" d="M172.646 19.2333C171.145 17.2987 169.223 15.733 167.025 14.6559C164.827 13.5788 162.412 13.0188 159.965 13.0188C157.517 13.0188 155.102 13.5788 152.905 14.6559C150.707 15.733 148.784 17.2987 147.284 19.2333C145.273 22.1035 144.218 25.5352 144.27 29.0399C144.218 32.5446 145.273 35.9763 147.284 38.8465C148.784 40.7811 150.707 42.3468 152.905 43.4239C155.102 44.501 157.517 45.061 159.965 45.061C162.412 45.061 164.827 44.501 167.025 43.4239C169.223 42.3468 171.145 40.7811 172.646 38.8465C174.656 35.9759 175.71 32.5445 175.66 29.0399C175.71 25.5353 174.656 22.1039 172.646 19.2333ZM167.622 32.7174C166.471 36.162 163.738 38.8465 159.952 38.9323C156.167 39.0182 153.434 36.162 152.295 32.7174C151.48 30.3335 151.48 27.7463 152.295 25.3624C153.447 21.9178 156.179 19.2333 159.952 19.1475C163.726 19.0617 166.471 21.9178 167.622 25.3624C168.434 27.7427 168.434 30.3248 167.622 32.7051V32.7174ZM52.1465 44.2402C52.1465 44.4808 52.051 44.7115 51.8809 44.8816C51.7109 45.0517 51.4803 45.1473 51.2398 45.1473H45.9714C45.731 45.1473 45.5004 45.0517 45.3303 44.8816C45.1603 44.7115 45.0648 44.4808 45.0648 44.2402V0.907114C45.0648 0.666532 45.1603 0.435804 45.3303 0.265687C45.5004 0.0955706 45.731 0 45.9714 0H51.2398C51.4803 0 51.7109 0.0955706 51.8809 0.265687C52.051 0.435804 52.1465 0.666532 52.1465 0.907114V44.2402ZM39.7719 44.2402C39.7719 44.4808 39.6764 44.7115 39.5063 44.8816C39.3363 45.0517 39.1057 45.1473 38.8652 45.1473H33.5968C33.3564 45.1473 33.1258 45.0517 32.9557 44.8816C32.7857 44.7115 32.6902 44.4808 32.6902 44.2402V0.907114C32.6902 0.668641 32.784 0.439752 32.9514 0.269983C33.1188 0.100214 33.3463 0.0032226 33.5846 0H38.853C39.0934 0 39.324 0.0955706 39.4941 0.265687C39.6641 0.435804 39.7596 0.666532 39.7596 0.907114V44.2402H39.7719ZM143.081 14.8203V18.4978C143.103 18.6565 143.084 18.818 143.026 18.9675C142.969 19.117 142.875 19.2497 142.753 19.3535C142.631 19.4572 142.485 19.5286 142.328 19.5611C142.172 19.5937 142.009 19.5863 141.856 19.5397C135.902 18.3139 132.238 20.9617 132.238 26.4657V44.2402C132.238 44.4808 132.143 44.7115 131.973 44.8816C131.803 45.0517 131.572 45.1473 131.332 45.1473H126.063C125.823 45.1473 125.592 45.0517 125.422 44.8816C125.252 44.7115 125.157 44.4808 125.157 44.2402V26.0857C125.125 24.3684 125.454 22.6637 126.123 21.082C126.793 19.5003 127.786 18.077 129.04 16.9042C131.616 14.3849 135.081 12.984 138.683 13.0061C139.916 13.0094 141.146 13.1242 142.359 13.3493C142.983 13.5577 143.081 13.9254 143.081 14.8693V14.8203ZM120.525 29.0276C120.592 25.5208 119.536 22.0845 117.511 19.221C116.011 17.2864 114.088 15.7207 111.891 14.6436C109.693 13.5665 107.278 13.0066 104.83 13.0066C102.383 13.0066 99.9681 13.5665 97.7702 14.6436C95.5723 15.7207 93.6497 17.2864 92.1495 19.221C90.1583 22.1033 89.0918 25.5239 89.0918 29.0276C89.0918 32.5314 90.1583 35.952 92.1495 38.8343C93.6256 40.7951 95.5433 42.3799 97.7467 43.4598C99.9501 44.5397 102.377 45.0843 104.83 45.0492C108.044 45.0598 111.187 44.1124 113.86 42.3279V46.2015C113.86 51.4603 109.266 52.4165 106.325 52.6003C104.302 52.6673 102.277 52.5565 100.273 52.2694C99.464 52.1468 98.9004 52.2694 98.9004 53.1397V57.7979C98.9051 57.9025 98.9304 58.0052 98.9749 58.1001C99.0193 58.195 99.082 58.2802 99.1594 58.3508C99.2368 58.4214 99.3273 58.476 99.4258 58.5115C99.5244 58.5471 99.6289 58.5628 99.7335 58.5579C106.558 59.1463 111.152 59.0237 114.608 57.0501C117.028 55.618 118.825 53.3307 119.643 50.639C120.254 48.5623 120.548 46.4048 120.513 44.2402V29.0276H120.525ZM104.83 38.9078C101.045 38.9078 98.3123 36.1375 97.1606 32.6929C96.3457 30.309 96.3457 27.7218 97.1606 25.3379C98.3123 21.8933 101.045 19.1229 104.83 19.1229C113.297 19.1229 113.578 27.765 113.578 29.0154C113.578 30.2657 113.297 38.9078 104.83 38.9078ZM27.8629 25.8527C27.8629 21.6727 26.9317 18.4978 24.9224 16.3035C22.913 14.1093 18.8698 13.0183 15.1207 13.0183C11.3574 13.0036 7.65775 13.9892 4.40014 15.8745C4.29818 15.9348 4.21391 16.021 4.15583 16.1243C4.09775 16.2276 4.06792 16.3444 4.06934 16.4629L4.35113 21.072C4.37617 21.2154 4.43883 21.3496 4.53272 21.4607C4.62661 21.5719 4.74835 21.6562 4.88547 21.7048C5.02259 21.7534 5.17017 21.7647 5.31309 21.7376C5.45601 21.7104 5.58915 21.6457 5.69886 21.5501C10.2934 18.7184 15.8068 18.1913 18.6125 19.6133C19.3844 20.0584 20.0205 20.7056 20.4522 21.4853C20.884 22.265 21.0951 23.1477 21.063 24.0385V24.7127H13.4054C10.1096 24.7127 0.0138996 25.9386 0.0138996 35.2181V35.3162C-0.0646597 36.7283 0.190604 38.139 0.758981 39.434C1.32736 40.7289 2.19284 41.8715 3.2852 42.7692C5.67129 44.4509 8.5556 45.276 11.4696 45.1105H26.9685C27.2089 45.1105 27.4395 45.015 27.6096 44.8448C27.7796 44.6747 27.8751 44.444 27.8751 44.2034V25.816L27.8629 25.8527ZM21.063 39.4472H11.9107C10.7364 39.4135 9.60167 39.0151 8.66386 38.3072C8.18147 37.9683 7.78957 37.5161 7.52254 36.9903C7.25552 36.4646 7.12154 35.8813 7.13236 35.2916C7.13236 33.6368 8.24729 30.327 13.822 30.327H21.063V39.4472ZM71.5415 13.0183C62.1687 13.0183 58.0642 19.3068 56.7533 24.6269C56.3927 26.0618 56.2116 27.5359 56.2142 29.0154C56.1635 32.52 57.2181 35.9514 59.2282 38.822C60.7303 40.7546 62.6532 42.319 64.8506 43.396C67.0481 44.4729 69.4621 45.0342 71.9091 45.037C76.9692 45.2209 80.3508 44.3628 82.9359 42.8918C83.188 42.7291 83.3827 42.4913 83.4926 42.212C83.6025 41.9327 83.6221 41.626 83.5485 41.335V37.253C83.5485 36.4194 83.0462 36.0271 82.3233 36.5297C79.2974 38.47 75.7064 39.3337 72.1296 38.9814C70.0927 38.9545 68.136 38.183 66.6284 36.8124C65.1208 35.4418 64.1664 33.5667 63.9452 31.5406H84.7738C84.9991 31.5406 85.2154 31.4519 85.3759 31.2936C85.5364 31.1353 85.6282 30.9202 85.6314 30.6948C85.999 24.9947 84.3449 13.0183 71.5415 13.0183ZM64.0555 25.9018C64.0977 24.9634 64.3259 24.0427 64.727 23.1934C65.1281 22.344 65.6939 21.583 66.3917 20.9545C67.0894 20.3259 67.9051 19.8425 68.7914 19.5323C69.6776 19.2221 70.6166 19.0913 71.5538 19.1475C72.4507 19.0925 73.349 19.2303 74.1884 19.5515C75.0277 19.8727 75.7886 20.3699 76.42 21.0097C77.0513 21.6495 77.5385 22.4171 77.8488 23.2609C78.1591 24.1047 78.2853 25.0051 78.2189 25.9018H64.0555Z" fill="#FF5A00"/>
</svg>
