<svg width="180" height="53" viewBox="0 0 122 36" fill="none" xmlns="http://www.w3.org/2000/svg">
<g id="Group 51">
<path id="Vector" d="M33.1665 22.8689C31.1941 22.8689 29.3459 22.0338 27.6668 20.6744L28.0757 18.7553L28.0934 18.6842C28.4575 16.6409 29.6126 13.2113 33.1665 13.2113C35.8318 13.2113 37.9997 15.3792 37.9997 18.0444C37.9907 20.7009 35.823 22.8689 33.1665 22.8689ZM33.1665 8.31596C28.6263 8.31596 25.1082 11.2657 23.6779 16.1166C21.4922 12.8382 19.8396 8.90239 18.8713 5.58838H13.9848V18.3021C13.9848 20.8076 11.9413 22.8508 9.43579 22.8508C6.93031 22.8508 4.88705 20.8076 4.88705 18.3021V5.58838H5.57279e-05V18.3021C-0.017722 23.5086 4.22026 27.7819 9.42654 27.7819C14.6331 27.7819 18.871 23.5086 18.871 18.3021V16.1699C19.8216 18.1511 20.9854 20.15 22.3982 21.9271L19.4039 36H24.4061L26.5738 25.7918C28.4751 27.0089 30.6608 27.7731 33.1663 27.7731C38.5236 27.7731 42.886 23.3842 42.886 18.0267C42.886 12.6782 38.5238 8.31596 33.1665 8.31596Z" fill="#6FDA44"/>
<path id="Vector_2" d="M57.8032 8.86684L60.9572 21.5806L64.4312 8.86684H68.5713L63.2318 27.2401H59.0914L55.8132 14.4462L52.5435 27.2311H48.4034L43.0635 8.85807H47.2038L50.6776 21.5718L53.8316 8.85807H57.8029V8.86708L57.8032 8.86684ZM78.4775 8.31597C73.1025 8.31597 68.7491 12.6782 68.7491 18.0444C68.7491 23.4197 73.1112 27.7732 78.4775 27.7732C83.8528 27.7732 88.215 23.4197 88.215 18.0444C88.215 12.6694 83.8528 8.31597 78.4775 8.31597ZM78.4775 23.7751C75.3147 23.7751 72.7559 21.2162 72.7559 18.0535C72.7559 14.8904 75.3235 12.3319 78.4775 12.3319C81.6405 12.3319 84.1991 14.8904 84.1991 18.0535C84.1991 21.2075 81.6405 23.7751 78.4775 23.7751ZM100.04 12.9804C97.2596 12.9804 95.0118 15.237 95.0118 18.0089V27.2311H90.8447V8.86684H95.0118V11.6921C95.0118 11.6921 96.7886 8.85784 100.44 8.85784H101.719V12.9804H100.04ZM114.025 17.3338C116.983 15.6634 118.991 12.4916 118.991 8.85784H114.824C114.824 11.923 112.337 14.4107 109.271 14.4107H108.712V0H104.545V27.2308H108.712V18.5775H109.209C109.618 18.5775 110.151 18.8442 110.391 19.1727L116.308 27.2311H121.301L114.025 17.3338Z" fill="white"/>
</g>
</svg>
