<svg width="167" height="58" viewBox="0 0 167 58" fill="none" xmlns="http://www.w3.org/2000/svg">
<path d="M0 39.2625L9.91725 28.7315L4.68404 18.4589H11.9201L14.569 23.9182L19.5761 18.4589H26.8121L17.2502 28.7315L22.7095 39.2625H15.3766L12.5339 33.6093L7.33295 39.2625H0Z" fill="white"/>
<path d="M35.9703 39.5394C33.4044 39.5394 31.3831 38.9487 29.9064 37.7673C28.4481 36.5859 27.719 34.9061 27.719 32.7279C27.719 32.0264 27.802 31.2604 27.9682 30.4297C28.6142 27.4393 29.8695 25.1504 31.7338 23.5629C33.5982 21.9569 36.3117 21.1539 39.8744 21.1539C40.9819 21.1539 41.9418 21.237 42.754 21.4031C43.5847 21.5693 44.3692 21.8 45.1076 22.0953L44.1385 26.6363C42.7171 25.9349 41.1019 25.5841 39.2929 25.5841C37.6131 25.5841 36.2841 25.9718 35.3057 26.7471C34.3274 27.5039 33.6536 28.7315 33.2844 30.4297C33.2106 30.762 33.1552 31.0758 33.1183 31.3711C33.0814 31.648 33.0629 31.9157 33.0629 32.1741C33.0629 33.1894 33.386 33.937 34.032 34.4169C34.6966 34.8784 35.7857 35.1091 37.2993 35.1091C38.1854 35.1091 39.0622 35.0261 39.9298 34.8599C40.8158 34.6938 41.7111 34.4354 42.6156 34.0846L41.6465 38.6533C40.7974 38.9302 39.9113 39.1425 38.9883 39.2902C38.0838 39.4563 37.0778 39.5394 35.9703 39.5394Z" fill="white"/>
<path d="M44.8701 39.2625L48.6358 21.4308H53.8413L52.4291 28.0761H58.5761L59.9882 21.4308H65.1937L61.428 39.2625H56.2225L57.6347 32.6171H51.4877L50.0756 39.2625H44.8701Z" fill="white"/>
<path d="M64.7633 39.2625L75.3681 21.4308H80.8782L83.9517 39.2625H78.5247L77.8878 35.4691H72.4608L70.1903 39.2625H64.7633ZM73.9283 31.7311H77.9155L77.0295 26.4979L73.9283 31.7311Z" fill="white"/>
<path d="M87.3066 39.2625L91.0723 21.4308H95.5025L100.237 30.8727L102.231 21.4308H107.436L103.671 39.2625H99.2128L94.5057 29.8482L92.5121 39.2625H87.3066Z" fill="white"/>
<path d="M116.647 39.5394C115.022 39.5394 113.601 39.2809 112.383 38.7641C111.183 38.2472 110.251 37.4904 109.586 36.4936C108.922 35.4783 108.589 34.2416 108.589 32.7833C108.589 32.0634 108.672 31.3065 108.839 30.5128C109.485 27.5224 110.786 25.215 112.743 23.5905C114.699 21.9661 117.431 21.1539 120.939 21.1539C122.046 21.1539 123.034 21.2185 123.901 21.3477C124.769 21.477 125.572 21.6708 126.31 21.9292L125.341 26.3871C124.603 26.0733 123.809 25.861 122.96 25.7503C122.129 25.6395 121.262 25.5841 120.357 25.5841C118.77 25.5841 117.431 25.9718 116.342 26.7471C115.253 27.5224 114.524 28.7776 114.155 30.5128C113.989 31.2327 113.906 31.8603 113.906 32.3956C113.906 33.337 114.183 34.0293 114.736 34.4723C115.309 34.8969 116.259 35.1091 117.588 35.1091C118.068 35.1091 118.521 35.0814 118.945 35.0261C119.388 34.9522 119.813 34.8599 120.219 34.7492L120.773 32.1464H117.228L117.921 28.9345H125.812L123.901 37.9057C123.126 38.3303 122.129 38.7087 120.911 39.041C119.711 39.3732 118.29 39.5394 116.647 39.5394Z" fill="white"/>
<path d="M143.515 39.2625L147.908 18.4589H153.077L158.601 29.4744L160.927 18.4589H167L162.607 39.2625H157.406L151.914 28.2792L149.588 39.2625H143.515Z" fill="white"/>
<path fill-rule="evenodd" clip-rule="evenodd" d="M127.827 35.2753L126.985 39.2625H140.497L141.328 35.2753H133.021H127.827ZM135.126 25.418L135.117 25.4565L129.909 25.418L130.751 21.4308H144.263L143.432 25.418H135.126Z" fill="white"/>
<path d="M141.771 28.3253H134.489H129.295L128.441 32.3679H133.63H140.913L141.771 28.3253Z" fill="#0ABAB5"/>
<path d="M67.6069 6.05819C67.6069 6.05819 70.6484 0.525486 79.2015 0.0244381C87.5853 -0.462496 96.2866 6.48866 96.2866 6.48866L99.1447 3.91285L103.379 15.444L89.773 14.6466L92.3841 11.5344C92.3841 11.5344 80.8811 -1.51399 67.6139 6.05819H67.6069Z" fill="#0ABAB5"/>
<path d="M100.38 51.3789C100.38 51.3789 97.338 56.9116 88.7849 57.4127C80.4011 57.8996 71.6998 50.9485 71.6998 50.9485L68.8418 53.5243L64.6075 41.9931L78.2135 42.7905L75.6024 45.9027C75.6024 45.9027 87.1053 58.9511 100.372 51.3789H100.38Z" fill="#0ABAB5"/>
</svg>
